<svg width="337" height="283" viewBox="0 0 337 283" fill="none" xmlns="http://www.w3.org/2000/svg">
<path d="M64.9491 235.053C75.5599 229.916 82.149 221.096 82.149 208.337V208.08C82.149 199.089 79.4103 192.582 74.1906 187.358C68.1148 181.193 58.1887 177.34 42.7005 177.34H0V256.546H29.18V239.848H35.4267L63.0665 282.063H96.4393L64.9491 235.053ZM53.0547 210.478C53.0547 215.873 48.7757 218.955 41.8444 218.955H29.18V201.829H41.9301C48.6905 201.829 53.0547 204.57 53.0547 210.221V210.478Z" fill="#FBFBFE"/>
<path d="M288.804 175.456C268.267 175.456 251.323 187.187 244.392 203.884C243.622 197.034 241.055 191.725 236.605 187.358C230.444 181.193 220.603 177.34 205.115 177.34H162.414V247.64L132.806 176.74H103.798L76.5859 241.818L86.4269 256.546H191.594V239.848H197.841L208.879 256.546H241.996L227.278 235.053C233.268 232.142 237.889 228.117 240.883 222.894C241.311 236.594 247.815 248.582 257.998 256.546H318.754C329.536 248.24 336.21 235.481 336.21 221.096V220.839C336.381 195.493 315.759 175.456 288.804 175.456ZM109.103 234.967L118.088 211.163L126.988 234.967H109.103ZM215.469 210.478C215.469 215.872 211.19 218.955 204.259 218.955H191.68V201.829H204.43C211.19 201.829 215.554 204.57 215.554 210.221V210.478H215.469ZM306.945 221.353C306.945 231.628 299.928 240.876 288.804 240.876C277.594 240.876 270.406 231.543 270.406 221.096V220.839C270.406 210.564 277.423 201.316 288.547 201.316C299.757 201.316 306.945 210.649 306.945 221.096V221.353Z" fill="#FBFBFE"/>
<path d="M168.561 101.338C168.561 101.338 202.443 85.5903 224.119 75.4784C224.119 75.4784 225.618 74.5009 227.207 75.4443C228.796 76.3876 228.668 77.9789 228.668 77.9789V118.65C228.668 119.39 228.371 120.13 227.778 120.722C220.06 128.564 211.156 134.779 201.212 139.069C190.972 143.657 179.989 145.876 168.71 145.876C157.43 145.876 146.448 143.509 136.207 139.069C132.942 137.59 129.677 135.962 126.56 134.039C125.076 133.299 124.631 131.375 125.522 130.044C126.263 128.564 128.193 128.12 129.529 129.008C132.348 130.636 135.317 132.263 138.433 133.595C147.932 137.738 158.172 139.809 168.561 139.809C178.95 139.809 189.191 137.738 198.837 133.595C207.593 129.748 215.608 124.273 222.583 117.319V82.5466L169.897 107.257C169.452 107.405 169.006 107.553 168.561 107.553C168.116 107.553 167.67 107.405 167.226 107.257L126.709 88.3173C125.225 87.5775 124.483 85.8021 125.225 84.322C125.967 82.8425 127.747 82.1027 129.232 82.8425L168.561 101.338Z" fill="#FBFBFE"/>
<path d="M277.067 51.0028L169.674 0.333278C168.933 -0.111093 167.896 -0.111093 167.156 0.333278L59.6139 51.0028C58.5772 51.4472 57.9844 52.4844 57.9844 53.6696C57.9844 54.8547 58.5772 55.8919 59.6139 56.3363L96.0539 73.5224C97.5349 74.2632 99.3124 73.5224 100.053 72.0408C100.794 70.5592 100.053 68.7817 98.5722 68.041L67.7611 53.5216L168.34 6.40804L268.772 53.6696L236.776 68.7817C235.295 69.5225 234.702 71.3 235.295 72.7816C235.74 73.8188 236.924 74.4116 237.961 74.4116C238.406 74.4116 238.85 74.2632 239.295 74.1152L277.067 56.3363C278.104 55.8919 278.697 54.8547 278.697 53.6696C278.697 52.4844 278.104 51.4472 277.067 51.0028Z" fill="#FBFBFE"/>
<path d="M170.965 48.8034C171.705 50.2844 171.113 52.0614 169.631 52.8017L114.673 79.7543V157.649C114.673 159.278 113.34 160.611 111.711 160.611C110.082 160.611 108.748 159.278 108.748 157.649V76.7967C108.748 76.7967 108.747 76.2968 109.201 75.9784C109.655 75.66 109.791 75.6146 109.791 75.6146L166.965 47.4708C168.446 46.7305 170.224 47.3228 170.965 48.8034Z" fill="#FBFBFE"/>
<path d="M113.667 278.186H105.764L104.128 281.96H101.939L108.674 266.865H110.778L117.534 281.96H115.303L113.667 278.186ZM112.924 276.461L109.716 269.065L106.507 276.461H112.924Z" fill="#FBFBFE"/>
<path d="M143.404 282.133C141.917 282.133 140.571 281.802 139.367 281.141C138.178 280.465 137.243 279.545 136.563 278.38C135.883 277.202 135.543 275.879 135.543 274.412C135.543 272.946 135.883 271.631 136.563 270.466C137.243 269.288 138.185 268.367 139.389 267.706C140.592 267.031 141.938 266.692 143.425 266.692C144.586 266.692 145.649 266.894 146.612 267.296C147.575 267.685 148.397 268.267 149.077 269.043L147.696 270.401C146.577 269.209 145.181 268.612 143.51 268.612C142.405 268.612 141.407 268.863 140.515 269.366C139.622 269.87 138.921 270.567 138.411 271.458C137.915 272.335 137.667 273.32 137.667 274.412C137.667 275.505 137.915 276.497 138.411 277.388C138.921 278.265 139.622 278.956 140.515 279.459C141.407 279.962 142.405 280.213 143.51 280.213C145.168 280.213 146.562 279.61 147.696 278.402L149.077 279.761C148.397 280.537 147.568 281.127 146.591 281.529C145.628 281.932 144.566 282.133 143.404 282.133Z" fill="#FBFBFE"/>
<path d="M178.441 278.186H170.537L168.901 281.96H166.713L173.448 266.865H175.551L182.307 281.96H180.077L178.441 278.186ZM177.697 276.461L174.489 269.065L171.281 276.461H177.697Z" fill="#FBFBFE"/>
<path d="M201.734 266.865H208.002C209.574 266.865 210.969 267.181 212.188 267.814C213.405 268.446 214.348 269.338 215.013 270.488C215.693 271.624 216.033 272.932 216.033 274.412C216.033 275.893 215.693 277.209 215.013 278.359C214.348 279.494 213.405 280.379 212.188 281.011C210.969 281.644 209.574 281.96 208.002 281.96H201.734V266.865ZM207.874 280.084C209.078 280.084 210.134 279.847 211.04 279.372C211.961 278.898 212.669 278.237 213.165 277.388C213.66 276.526 213.908 275.534 213.908 274.412C213.908 273.291 213.66 272.306 213.165 271.458C212.669 270.596 211.961 269.927 211.04 269.453C210.134 268.978 209.078 268.741 207.874 268.741H203.859V280.084H207.874Z" fill="#FBFBFE"/>
<path d="M247.289 280.084V281.96H236.496V266.865H246.992V268.741H238.621V273.377H246.078V275.21H238.621V280.084H247.289Z" fill="#FBFBFE"/>
<path d="M281.728 281.96L281.707 270.962L276.332 280.127H275.354L269.979 271.027V281.96H267.939V266.865H269.681L275.885 277.475L282.004 266.865H283.747L283.767 281.96H281.728Z" fill="#FBFBFE"/>
<path d="M311.135 276.741V281.96H309.031V276.699L303.125 266.865H305.398L310.157 274.822L314.938 266.865H317.041L311.135 276.741Z" fill="#FBFBFE"/>
</svg>
