<svg width="276" height="94" viewBox="0 0 276 94" fill="none" xmlns="http://www.w3.org/2000/svg">
<path d="M158.815 56.5696C163.234 54.3595 165.978 50.5658 165.978 45.0775V44.967C165.978 41.0995 164.837 38.3002 162.663 36.0532C160.133 33.4012 155.999 31.7439 149.549 31.7439H131.766V65.8147H143.918V58.6323H146.52L158.03 76.7911H171.929L158.815 56.5696ZM153.861 45.9982C153.861 48.3188 152.079 49.6448 149.192 49.6448H143.918V42.2781H149.228C152.043 42.2781 153.861 43.4567 153.861 45.8879V45.9982Z" fill="white"/>
<path d="M252.044 30.9335C243.491 30.9335 236.434 35.9795 233.548 43.1622C233.227 40.2154 232.158 37.9316 230.305 36.0532C227.739 33.4012 223.64 31.7439 217.19 31.7439H199.407V61.9841L187.076 31.4859H174.995L163.662 59.4792L167.761 65.8147H211.559V58.6323H214.161L218.758 65.8147H232.55L226.42 56.5696C228.915 55.3173 230.839 53.5859 232.086 51.339C232.265 57.2326 234.973 62.3891 239.214 65.8147H264.516C269.007 62.2417 271.787 56.7535 271.787 50.5658V50.4552C271.858 39.5525 263.269 30.9335 252.044 30.9335ZM177.204 56.5327L180.946 46.293L184.653 56.5327H177.204ZM221.502 45.9982C221.502 48.3188 219.72 49.6448 216.833 49.6448H211.595V42.2781H216.905C219.72 42.2781 221.538 43.4567 221.538 45.8879V45.9982H221.502ZM259.599 50.676C259.599 55.0962 256.676 59.0742 252.044 59.0742C247.375 59.0742 244.381 55.0593 244.381 50.5658V50.4552C244.381 46.035 247.304 42.057 251.937 42.057C256.605 42.057 259.599 46.0719 259.599 50.5658V50.676Z" fill="white"/>
<path d="M62.8244 57.2613C62.8244 57.2613 80.1375 48.9937 91.2139 43.685C91.2139 43.685 91.9796 43.1719 92.7916 43.6672C93.6037 44.1625 93.5384 44.9979 93.5384 44.9979V66.3499C93.5384 66.7381 93.3867 67.1266 93.0833 67.4373C89.1398 71.5543 84.5896 74.8171 79.5084 77.0697C74.2759 79.4778 68.6638 80.643 62.9003 80.643C57.1368 80.643 51.5247 79.4 46.2918 77.0697C44.6235 76.293 42.9551 75.4383 41.3627 74.4286C40.6042 74.0402 40.3766 73.0302 40.8317 72.3313C41.211 71.5543 42.1967 71.3213 42.8793 71.7876C44.3201 72.642 45.837 73.4964 47.4295 74.1957C52.2832 76.3705 57.5157 77.4582 62.8244 77.4582C68.1331 77.4582 73.3657 76.3705 78.2952 74.1957C82.7696 72.1758 86.8647 69.3017 90.4289 65.6507V47.3957L63.5071 60.3683C63.2795 60.4461 63.052 60.5238 62.8244 60.5238C62.5969 60.5238 62.3693 60.4461 62.1418 60.3683L41.4385 50.4252C40.68 50.037 40.3008 49.1048 40.68 48.3279C41.0593 47.5512 41.9691 47.1627 42.7276 47.5512L62.8244 57.2613Z" fill="white"/>
<path d="M118.269 30.8357L63.3921 4.23468C63.0135 4.0014 62.4838 4.0014 62.1054 4.23468L7.15283 30.8357C6.6231 31.069 6.32031 31.6133 6.32031 32.2357C6.32031 32.8578 6.6231 33.4025 7.15283 33.6358L25.773 42.6582C26.53 43.0473 27.4384 42.6582 27.8167 41.8806C28.1953 41.1027 27.8167 40.1692 27.06 39.7804L11.316 32.158L62.711 7.42382L114.03 32.2357L97.6805 40.1692C96.9236 40.5583 96.6208 41.4915 96.9236 42.2694C97.1508 42.8137 97.7564 43.1251 98.2861 43.1251C98.513 43.1251 98.7403 43.0473 98.9672 42.9695L118.269 33.6358C118.799 33.4025 119.101 32.8578 119.101 32.2357C119.101 31.6133 118.799 31.069 118.269 30.8357Z" fill="white"/>
<path d="M64.0515 29.6812C64.4299 30.4585 64.1271 31.3913 63.3701 31.7801L35.2873 45.9298V86.8239C35.2873 87.6789 34.6062 88.3788 33.7737 88.3788C32.9409 88.3788 32.2598 87.6789 32.2598 86.8239V44.3771C32.2598 44.3771 32.2589 44.1147 32.4909 43.9477C32.723 43.7806 32.7925 43.7565 32.7925 43.7565L62.0076 28.9814C62.7645 28.5926 63.6729 28.9036 64.0515 29.6812Z" fill="white"/>
<path d="M178.957 75.0901H175.656L174.972 76.7171H174.059L176.872 70.2089H177.75L180.572 76.7171H179.64L178.957 75.0901ZM178.646 74.3462L177.306 71.1574L175.967 74.3462H178.646Z" fill="white"/>
<path d="M191.377 76.7914C190.756 76.7914 190.194 76.6487 189.691 76.3636C189.194 76.0725 188.804 75.6756 188.52 75.1738C188.236 74.6653 188.094 74.0951 188.094 73.463C188.094 72.8309 188.236 72.2638 188.52 71.7616C188.804 71.2532 189.197 70.8566 189.7 70.5715C190.203 70.2801 190.765 70.1346 191.386 70.1346C191.871 70.1346 192.315 70.2214 192.717 70.3951C193.12 70.5624 193.463 70.8132 193.746 71.148L193.17 71.7339C192.702 71.2192 192.12 70.9622 191.422 70.9622C190.96 70.9622 190.543 71.0705 190.17 71.2876C189.798 71.5043 189.505 71.8051 189.292 72.1892C189.085 72.5674 188.981 72.9921 188.981 73.463C188.981 73.934 189.085 74.3618 189.292 74.7459C189.505 75.1241 189.798 75.4217 190.17 75.6384C190.543 75.8555 190.96 75.9639 191.422 75.9639C192.114 75.9639 192.696 75.7037 193.17 75.1831L193.746 75.7687C193.463 76.1034 193.117 76.3577 192.708 76.531C192.306 76.7046 191.862 76.7914 191.377 76.7914Z" fill="white"/>
<path d="M206.012 75.0901H202.711L202.027 76.7171H201.113L203.926 70.2089H204.805L207.627 76.7171H206.695L206.012 75.0901ZM205.701 74.3462L204.361 71.1574L203.021 74.3462H205.701Z" fill="white"/>
<path d="M215.74 70.2089H218.358C219.015 70.2089 219.597 70.3454 220.106 70.618C220.615 70.8907 221.008 71.2751 221.286 71.771C221.571 72.2607 221.712 72.8247 221.712 73.463C221.712 74.1013 221.571 74.6685 221.286 75.1644C221.008 75.6541 220.615 76.0354 220.106 76.308C219.597 76.5806 219.015 76.7171 218.358 76.7171H215.74V70.2089ZM218.305 75.9083C218.808 75.9083 219.248 75.8058 219.627 75.6013C220.011 75.3967 220.307 75.1116 220.514 74.7459C220.721 74.374 220.825 73.9464 220.825 73.463C220.825 72.9796 220.721 72.5549 220.514 72.1892C220.307 71.8175 220.011 71.5293 219.627 71.3247C219.248 71.1202 218.808 71.0178 218.305 71.0178H216.628V75.9083H218.305Z" fill="white"/>
<path d="M234.768 75.9083V76.7171H230.26V70.2089H234.644V71.0178H231.147V73.0168H234.262V73.8068H231.147V75.9083H234.768Z" fill="white"/>
<path d="M249.152 76.7171L249.143 71.9756L246.898 75.9267H246.49L244.244 72.0034V76.7171H243.393V70.2089H244.12L246.712 74.7831L249.267 70.2089H249.995L250.004 76.7171H249.152Z" fill="white"/>
<path d="M261.435 74.467V76.7171H260.557V74.4486L258.09 70.2089H259.039L261.027 73.6398L263.024 70.2089H263.902L261.435 74.467Z" fill="white"/>
</svg>
