<svg width="242" height="78" viewBox="0 0 242 78" fill="none" xmlns="http://www.w3.org/2000/svg">
<path d="M139.25 46.9407C143.125 45.1068 145.531 41.9588 145.531 37.4048V37.313C145.531 34.1039 144.531 31.781 142.625 29.9165C140.406 27.7159 136.781 26.3407 131.126 26.3407H115.533V54.6122H126.189V48.6523H128.47L138.563 63.7203H150.749L139.25 46.9407ZM134.907 38.1687C134.907 40.0943 133.344 41.1946 130.813 41.1946H126.189V35.0819H130.844C133.313 35.0819 134.907 36.0598 134.907 38.0772V38.1687Z" fill="#343090"/>
<path d="M220.994 25.6682C213.494 25.6682 207.308 29.8553 204.776 35.8155C204.495 33.3703 203.558 31.4752 201.933 29.9165C199.683 27.7159 196.089 26.3407 190.434 26.3407H174.841V51.4336L164.03 26.1266H153.437L143.5 49.3551L147.094 54.6122H185.497V48.6523H187.778L191.809 54.6122H203.901L198.527 46.9407C200.714 45.9016 202.402 44.4649 203.495 42.6004C203.651 47.4908 206.026 51.7697 209.745 54.6122H231.93C235.867 51.6474 238.305 47.0933 238.305 41.9588V41.8671C238.367 32.8201 230.837 25.6682 220.994 25.6682ZM155.374 46.9101L158.655 38.4133L161.905 46.9101H155.374ZM194.215 38.1687C194.215 40.0943 192.652 41.1946 190.121 41.1946H185.528V35.0819H190.184C192.652 35.0819 194.246 36.0598 194.246 38.0772V38.1687H194.215ZM227.618 42.0503C227.618 45.7181 225.056 49.019 220.994 49.019C216.9 49.019 214.276 45.6875 214.276 41.9588V41.8671C214.276 38.1993 216.838 34.8984 220.9 34.8984C224.994 34.8984 227.618 38.2298 227.618 41.9588V42.0503Z" fill="#343090"/>
<path d="M55.084 47.5147C55.084 47.5147 70.2643 40.6543 79.9762 36.2493C79.9762 36.2493 80.6476 35.8235 81.3596 36.2345C82.0716 36.6455 82.0144 37.3387 82.0144 37.3387V55.0563C82.0144 55.3784 81.8814 55.7008 81.6153 55.9587C78.1577 59.3748 74.168 62.0823 69.7127 63.9515C65.1248 65.9497 60.204 66.9165 55.1505 66.9165C50.097 66.9165 45.1763 65.8851 40.588 63.9515C39.1252 63.307 37.6624 62.5977 36.2661 61.7599C35.6011 61.4376 35.4015 60.5995 35.8006 60.0196C36.1331 59.3749 36.9974 59.1815 37.5959 59.5684C38.8592 60.2774 40.1893 60.9864 41.5856 61.5666C45.8413 63.3712 50.4293 64.2738 55.084 64.2738C59.7388 64.2738 64.3267 63.3712 68.6489 61.5666C72.5721 59.8905 76.1628 57.5057 79.288 54.4761V39.3283L55.6826 50.0928C55.483 50.1574 55.2835 50.2219 55.084 50.2219C54.8845 50.2219 54.685 50.1574 54.4855 50.0928L36.3326 41.8422C35.6676 41.5201 35.335 40.7466 35.6676 40.1019C36.0001 39.4574 36.7979 39.135 37.4629 39.4574L55.084 47.5147Z" fill="#343090"/>
<path d="M103.699 25.5871L55.5822 3.51389C55.2502 3.32031 54.7858 3.32031 54.454 3.51389L6.27097 25.5871C5.8065 25.7807 5.54102 26.2324 5.54102 26.7488C5.54102 27.265 5.8065 27.7169 6.27097 27.9105L22.5974 35.3972C23.2611 35.7201 24.0576 35.3972 24.3893 34.752C24.7213 34.1065 24.3893 33.3319 23.7259 33.0093L9.92129 26.6843L54.985 6.16019L99.9822 26.7488L85.6467 33.3319C84.983 33.6548 84.7175 34.4291 84.983 35.0746C85.1822 35.5263 85.7132 35.7846 86.1777 35.7846C86.3767 35.7846 86.5759 35.7201 86.7749 35.6556L103.699 27.9105C104.163 27.7169 104.429 27.265 104.429 26.7488C104.429 26.2324 104.163 25.7807 103.699 25.5871Z" fill="#343090"/>
<path d="M56.1625 24.6291C56.4942 25.2741 56.2287 26.0481 55.565 26.3707L30.9417 38.1119V72.0453C30.9417 72.7548 30.3445 73.3356 29.6145 73.3356C28.8843 73.3356 28.2871 72.7548 28.2871 72.0453V36.8235C28.2871 36.8235 28.2863 36.6059 28.4898 36.4672C28.6933 36.3286 28.7542 36.3086 28.7542 36.3086L54.3703 24.0484C55.034 23.7257 55.8305 23.9838 56.1625 24.6291Z" fill="#343090"/>
<path d="M156.912 62.3088H154.018L153.418 63.6589H152.617L155.084 58.2585H155.854L158.328 63.6589H157.511L156.912 62.3088ZM156.64 61.6915L155.465 59.0455L154.29 61.6915H156.64Z" fill="#343090"/>
<path d="M167.803 63.7206C167.258 63.7206 166.765 63.6021 166.324 63.3655C165.889 63.124 165.546 62.7947 165.297 62.3782C165.048 61.9564 164.924 61.4832 164.924 60.9587C164.924 60.4342 165.048 59.9636 165.297 59.5469C165.546 59.125 165.891 58.7959 166.332 58.5593C166.773 58.3176 167.266 58.1968 167.811 58.1968C168.236 58.1968 168.625 58.2689 168.978 58.4129C169.33 58.5518 169.631 58.7599 169.88 59.0377L169.375 59.5238C168.965 59.0968 168.454 58.8835 167.842 58.8835C167.437 58.8835 167.071 58.9734 166.745 59.1535C166.418 59.3334 166.161 59.5829 165.974 59.9017C165.793 60.2155 165.702 60.5679 165.702 60.9587C165.702 61.3495 165.793 61.7045 165.974 62.0232C166.161 62.337 166.418 62.584 166.745 62.7638C167.071 62.9439 167.437 63.0338 167.842 63.0338C168.449 63.0338 168.959 62.818 169.375 62.386L169.88 62.8719C169.631 63.1497 169.328 63.3606 168.97 63.5044C168.617 63.6485 168.228 63.7206 167.803 63.7206Z" fill="#343090"/>
<path d="M180.633 62.3088H177.738L177.139 63.6589H176.338L178.804 58.2585H179.575L182.049 63.6589H181.232L180.633 62.3088ZM180.361 61.6915L179.186 59.0455L178.011 61.6915H180.361Z" fill="#343090"/>
<path d="M189.164 58.2585H191.459C192.035 58.2585 192.546 58.3717 192.992 58.5979C193.438 58.8242 193.783 59.1432 194.027 59.5547C194.276 59.961 194.4 60.429 194.4 60.9587C194.4 61.4883 194.276 61.9589 194.027 62.3704C193.783 62.7768 193.438 63.0932 192.992 63.3194C192.546 63.5456 192.035 63.6589 191.459 63.6589H189.164V58.2585ZM191.413 62.9877C191.854 62.9877 192.24 62.9027 192.572 62.733C192.909 62.5633 193.169 62.3267 193.35 62.0232C193.532 61.7146 193.622 61.3598 193.622 60.9587C193.622 60.5575 193.532 60.2051 193.35 59.9017C193.169 59.5933 192.909 59.3541 192.572 59.1844C192.24 59.0146 191.854 58.9296 191.413 58.9296H189.942V62.9877H191.413Z" fill="#343090"/>
<path d="M205.847 62.9877V63.6589H201.895V58.2585H205.738V58.9296H202.673V60.5884H205.404V61.244H202.673V62.9877H205.847Z" fill="#343090"/>
<path d="M218.46 63.6589L218.452 59.7244L216.484 63.003H216.126L214.157 59.7475V63.6589H213.41V58.2585H214.048L216.32 62.0541L218.561 58.2585H219.199L219.207 63.6589H218.46Z" fill="#343090"/>
<path d="M229.228 61.7918V63.6589H228.458V61.7765L226.295 58.2585H227.128L228.87 61.1053L230.621 58.2585H231.391L229.228 61.7918Z" fill="#343090"/>
</svg>
