<svg width="75" height="75" viewBox="0 0 75 75" fill="none" xmlns="http://www.w3.org/2000/svg">
<path d="M44.0918 12.7144L22.1272 33.5665L13.2385 35.9483C12.4344 36.1637 11.951 36.9882 12.1688 37.801L14.9027 48.004C15.1182 48.8081 15.9427 49.2915 16.7555 49.0737L20.8279 47.9825C21.635 52.2053 25.0855 55.5715 29.4946 56.1509C30.8504 56.3344 36.8686 56.2788 40.1446 50.1742L55.1007 53.7659C56.9057 53.9309 57.0538 52.4085 56.9194 51.9069L46.6049 13.4125C46.4595 12.9047 45.6208 11.7115 44.0918 12.7144ZM17.4361 45.7682L15.4806 38.4705L21.8273 36.7699L23.7827 44.0676L17.4361 45.7682ZM29.8982 53.1606C26.7298 52.7492 24.2583 50.2699 23.7702 47.2034L25.6639 46.696L37.1448 49.4581C35.746 52.0199 32.8861 53.5555 29.8982 53.1606ZM26.8563 43.8836L24.5858 35.4099L44.3381 16.6425L53.339 50.2343L26.8563 43.8836Z" fill="#343090"/>
<path d="M57.995 18.0434C57.2778 17.6148 56.3519 17.8257 55.9145 18.5453L52.6584 23.8939C52.2297 24.6111 52.4263 25.5871 53.1602 25.9744C54.0384 26.4155 55.0335 25.806 55.2361 25.4553L58.4968 20.1239C58.9255 19.4067 58.7146 18.4808 57.995 18.0434Z" fill="#343090"/>
<path d="M64.2018 27.7602L58.1751 29.3751C57.371 29.5905 56.8876 30.415 57.1054 31.2278C57.3209 32.032 58.1454 32.5153 58.9582 32.2975L64.9849 30.6827C65.789 30.4672 66.2724 29.6427 66.0546 28.8299C65.8368 28.0171 65.0059 27.5448 64.2018 27.7602Z" fill="#343090"/>
<path d="M63.8627 40.1582L58.3731 37.1715C57.6432 36.7647 56.7163 37.0409 56.3204 37.7772C55.9136 38.5071 56.1898 39.4339 56.9261 39.8299L62.4156 42.8165C62.7642 43.0104 63.9935 43.0333 64.4683 42.2109C64.8861 41.4871 64.5989 40.554 63.8627 40.1582Z" fill="#343090"/>
</svg>
