<svg width="74" height="74" viewBox="0 0 74 74" fill="none" xmlns="http://www.w3.org/2000/svg">
<g clip-path="url(#clip0_1025_1326)">
<path d="M54.9745 37.5184V48.5442C52.6625 50.7749 50.01 52.5321 47.1137 53.7695C43.9018 55.1105 40.4922 55.7813 37.0327 55.7813C33.5728 55.7813 30.1634 55.1104 27.0015 53.7696L27.0005 53.7692C25.9665 53.3395 24.9797 52.8139 24.0381 52.2855C23.5247 51.957 22.7844 52.1159 22.4899 52.6742C22.149 53.1797 22.3217 53.9016 22.8951 54.1842C23.9445 54.8134 25.0422 55.3453 26.1368 55.8276L26.1391 55.8285C29.5865 57.2815 33.2845 58.0566 37.0824 58.0566C40.8787 58.0566 44.5771 57.3303 48.0262 55.8283C51.3742 54.4235 54.3718 52.3891 56.9689 49.8233C57.1952 49.6038 57.3124 49.3247 57.3124 49.0414V35.8024L57.3126 35.7992C57.3129 35.7935 57.3132 35.7858 57.3132 35.7764C57.3134 35.7576 57.3129 35.7317 57.3103 35.7001C57.3053 35.6372 57.2921 35.5506 57.2597 35.4532C57.1941 35.256 57.0507 35.0174 56.748 34.8427C56.4416 34.6658 56.1429 34.6695 55.925 34.7162C55.8164 34.7395 55.7268 34.7736 55.6639 34.802C55.6324 34.8163 55.6072 34.8293 55.5894 34.8391C55.5809 34.8437 55.5741 34.8477 55.569 34.8507C51.9405 36.4964 47.2931 38.5997 43.5517 40.292C41.6797 41.1388 40.0345 41.8827 38.8573 42.4149L37.4727 43.0408L37.1001 43.2092L37.0331 43.2395L23.9252 37.2459C23.3465 36.9665 22.6671 37.2499 22.3861 37.7946L22.3861 37.7946C22.0917 38.3653 22.3929 39.0289 22.9511 39.2992L22.9511 39.2993L22.9544 39.3008L36.5232 45.4679L36.531 45.4715L36.5392 45.4741L36.5491 45.4773C36.6913 45.5233 36.8597 45.5778 37.0327 45.5778C37.2057 45.5778 37.3741 45.5233 37.5164 45.4773L37.5262 45.4741L37.5345 45.4714L37.5423 45.4678L54.9745 37.5184Z" fill="#343090" stroke="#343090" stroke-width="0.3"/>
<path d="M36.958 12.6577L70.2325 27.8825L59.8144 32.6667L59.8144 32.6666L59.8114 32.6681C59.2415 32.9453 59.0147 33.6095 59.2421 34.1627L59.2421 34.1627L59.2436 34.1661C59.4226 34.5719 59.8839 34.7863 60.2739 34.7863C60.4467 34.7863 60.6152 34.7317 60.7571 34.6856L60.7665 34.6826L60.7748 34.6799L60.7827 34.6763L73.4282 28.8891C73.429 28.8887 73.4299 28.8884 73.4307 28.888C73.8398 28.7163 74.0661 28.3191 74.0661 27.8823C74.0661 27.4453 73.8398 27.0483 73.4308 26.8766C73.4299 26.8762 73.429 26.8758 73.4282 26.8755L37.4734 10.3813C37.1814 10.2146 36.7842 10.2145 36.4924 10.3813L0.48541 26.8765C0.0763348 27.0483 -0.15 27.4453 -0.15 27.8823C-0.15 28.3191 0.0763026 28.7163 0.485365 28.888L12.6852 34.4824C13.2633 34.7625 13.9418 34.4782 14.222 33.9331C14.5157 33.3621 14.2154 32.6978 13.6583 32.4269L13.6583 32.4269L13.6552 32.4255L3.63515 27.8345L36.958 12.6577Z" fill="#343090" stroke="#343090" stroke-width="0.3"/>
<path d="M37.9695 26.2292L37.9695 26.2292C37.6831 25.6725 36.9986 25.4532 36.4313 25.7287C36.4312 25.7288 36.4311 25.7288 36.431 25.7289L17.2896 34.8902C17.286 34.8917 17.2821 34.8934 17.2777 34.8954C17.267 34.9002 17.2531 34.9071 17.2352 34.9169C17.1995 34.9365 17.1459 34.9689 17.067 35.0226C16.9589 35.0963 16.9041 35.1922 16.8772 35.2688C16.8639 35.3068 16.8571 35.3404 16.8537 35.3654C16.852 35.378 16.851 35.3885 16.8505 35.3966L16.8501 35.407L16.85 35.4107L16.85 35.4122L16.85 35.4128L16.85 35.4129V61.7403C16.85 62.3574 17.3676 62.8547 17.9922 62.8547C18.6167 62.8547 19.1343 62.3574 19.1343 61.7403V36.4706L37.4541 27.7351L37.4551 27.7346C38.0247 27.4578 38.2571 26.7884 37.9695 26.2292Z" fill="#343090" stroke="#343090" stroke-width="0.3"/>
</g>
<defs>
<clipPath id="clip0_1025_1326">
<rect width="74" height="74" fill="white"/>
</clipPath>
</defs>
</svg>
