<svg width="74" height="74" viewBox="0 0 74 74" fill="none" xmlns="http://www.w3.org/2000/svg">
<mask id="path-1-outside-1_1023_1312" maskUnits="userSpaceOnUse" x="16" y="11" width="41" height="52" fill="black">
<rect fill="white" x="16" y="11" width="41" height="52"/>
<path d="M53.0783 12H20.5091C18.5739 12 17 13.5751 17 15.5099V58.9788C17 60.914 18.5743 62.488 20.5091 62.488H53.0783C55.0142 62.488 56.5888 60.9136 56.5888 58.9788L56.5892 15.5099C56.5892 13.5751 55.0134 12 53.0783 12H53.0783ZM29.7362 14.2328H43.854V18.5003C43.854 19.2043 43.2802 19.7774 42.5763 19.7774L31.0104 19.7778C30.3072 19.7778 29.7348 19.2047 29.7348 18.5007V14.2328L29.7362 14.2328ZM54.3566 58.9791C54.3566 59.6823 53.7827 60.2554 53.0788 60.2554H20.5097C19.8065 60.2554 19.2334 59.6823 19.2334 58.9791L19.2326 15.5102C19.2326 14.8062 19.8057 14.2331 20.509 14.2331H27.5021V18.5006C27.5021 20.4366 29.0753 22.0105 31.0105 22.0105H42.5745C44.5105 22.0105 46.0851 20.4362 46.0851 18.5006L46.0854 14.2331H53.0778C53.7817 14.2331 54.3555 14.8062 54.3555 15.5102L54.3566 58.9791Z"/>
</mask>
<path d="M53.0783 12H20.5091C18.5739 12 17 13.5751 17 15.5099V58.9788C17 60.914 18.5743 62.488 20.5091 62.488H53.0783C55.0142 62.488 56.5888 60.9136 56.5888 58.9788L56.5892 15.5099C56.5892 13.5751 55.0134 12 53.0783 12H53.0783ZM29.7362 14.2328H43.854V18.5003C43.854 19.2043 43.2802 19.7774 42.5763 19.7774L31.0104 19.7778C30.3072 19.7778 29.7348 19.2047 29.7348 18.5007V14.2328L29.7362 14.2328ZM54.3566 58.9791C54.3566 59.6823 53.7827 60.2554 53.0788 60.2554H20.5097C19.8065 60.2554 19.2334 59.6823 19.2334 58.9791L19.2326 15.5102C19.2326 14.8062 19.8057 14.2331 20.509 14.2331H27.5021V18.5006C27.5021 20.4366 29.0753 22.0105 31.0105 22.0105H42.5745C44.5105 22.0105 46.0851 20.4362 46.0851 18.5006L46.0854 14.2331H53.0778C53.7817 14.2331 54.3555 14.8062 54.3555 15.5102L54.3566 58.9791Z" fill="#343090"/>
<path d="M53.0783 12H20.5091C18.5739 12 17 13.5751 17 15.5099V58.9788C17 60.914 18.5743 62.488 20.5091 62.488H53.0783C55.0142 62.488 56.5888 60.9136 56.5888 58.9788L56.5892 15.5099C56.5892 13.5751 55.0134 12 53.0783 12H53.0783ZM29.7362 14.2328H43.854V18.5003C43.854 19.2043 43.2802 19.7774 42.5763 19.7774L31.0104 19.7778C30.3072 19.7778 29.7348 19.2047 29.7348 18.5007V14.2328L29.7362 14.2328ZM54.3566 58.9791C54.3566 59.6823 53.7827 60.2554 53.0788 60.2554H20.5097C19.8065 60.2554 19.2334 59.6823 19.2334 58.9791L19.2326 15.5102C19.2326 14.8062 19.8057 14.2331 20.509 14.2331H27.5021V18.5006C27.5021 20.4366 29.0753 22.0105 31.0105 22.0105H42.5745C44.5105 22.0105 46.0851 20.4362 46.0851 18.5006L46.0854 14.2331H53.0778C53.7817 14.2331 54.3555 14.8062 54.3555 15.5102L54.3566 58.9791Z" stroke="#343090" stroke-width="0.4" mask="url(#path-1-outside-1_1023_1312)"/>
<mask id="path-2-outside-2_1023_1312" maskUnits="userSpaceOnUse" x="23.2783" y="27.6841" width="10" height="9" fill="black">
<rect fill="white" x="23.2783" y="27.6841" width="10" height="9"/>
<path d="M32.3988 28.9213C31.9144 28.5419 31.2115 28.6266 30.8314 29.1117L27.7529 33.0384L26.1841 31.4703C25.748 31.035 25.0415 31.0342 24.6054 31.4703C24.1693 31.9064 24.1693 32.6136 24.6054 33.0498L27.0653 35.509C27.0737 35.5163 27.0831 35.5188 27.0915 35.5254C27.1162 35.5493 27.1384 35.5751 27.1667 35.5977C27.2227 35.6424 27.2874 35.6653 27.3491 35.6965C27.3895 35.7165 27.4244 35.7441 27.4651 35.7598C27.5915 35.8066 27.7227 35.8357 27.8535 35.8357H27.8543H27.8557C27.9851 35.8357 28.1134 35.8066 28.2351 35.7612C28.2544 35.7539 28.2736 35.7492 28.2933 35.742C28.4092 35.6922 28.5164 35.6198 28.6127 35.5297C28.6232 35.5206 28.6349 35.5177 28.6447 35.509C28.6545 35.4999 28.6574 35.4868 28.6661 35.4763C28.6876 35.4534 28.713 35.4338 28.733 35.4087L32.5891 30.4907C32.9678 30.0037 32.8839 29.3026 32.3987 28.9215L32.3988 28.9213Z"/>
</mask>
<path d="M32.3988 28.9213C31.9144 28.5419 31.2115 28.6266 30.8314 29.1117L27.7529 33.0384L26.1841 31.4703C25.748 31.035 25.0415 31.0342 24.6054 31.4703C24.1693 31.9064 24.1693 32.6136 24.6054 33.0498L27.0653 35.509C27.0737 35.5163 27.0831 35.5188 27.0915 35.5254C27.1162 35.5493 27.1384 35.5751 27.1667 35.5977C27.2227 35.6424 27.2874 35.6653 27.3491 35.6965C27.3895 35.7165 27.4244 35.7441 27.4651 35.7598C27.5915 35.8066 27.7227 35.8357 27.8535 35.8357H27.8543H27.8557C27.9851 35.8357 28.1134 35.8066 28.2351 35.7612C28.2544 35.7539 28.2736 35.7492 28.2933 35.742C28.4092 35.6922 28.5164 35.6198 28.6127 35.5297C28.6232 35.5206 28.6349 35.5177 28.6447 35.509C28.6545 35.4999 28.6574 35.4868 28.6661 35.4763C28.6876 35.4534 28.713 35.4338 28.733 35.4087L32.5891 30.4907C32.9678 30.0037 32.8839 29.3026 32.3987 28.9215L32.3988 28.9213Z" fill="#343090"/>
<path d="M32.3988 28.9213C31.9144 28.5419 31.2115 28.6266 30.8314 29.1117L27.7529 33.0384L26.1841 31.4703C25.748 31.035 25.0415 31.0342 24.6054 31.4703C24.1693 31.9064 24.1693 32.6136 24.6054 33.0498L27.0653 35.509C27.0737 35.5163 27.0831 35.5188 27.0915 35.5254C27.1162 35.5493 27.1384 35.5751 27.1667 35.5977C27.2227 35.6424 27.2874 35.6653 27.3491 35.6965C27.3895 35.7165 27.4244 35.7441 27.4651 35.7598C27.5915 35.8066 27.7227 35.8357 27.8535 35.8357H27.8543H27.8557C27.9851 35.8357 28.1134 35.8066 28.2351 35.7612C28.2544 35.7539 28.2736 35.7492 28.2933 35.742C28.4092 35.6922 28.5164 35.6198 28.6127 35.5297C28.6232 35.5206 28.6349 35.5177 28.6447 35.509C28.6545 35.4999 28.6574 35.4868 28.6661 35.4763C28.6876 35.4534 28.713 35.4338 28.733 35.4087L32.5891 30.4907C32.9678 30.0037 32.8839 29.3026 32.3987 28.9215L32.3988 28.9213Z" stroke="#343090" stroke-width="0.4" mask="url(#path-2-outside-2_1023_1312)"/>
<mask id="path-3-outside-3_1023_1312" maskUnits="userSpaceOnUse" x="23.2783" y="37.3884" width="10" height="9" fill="black">
<rect fill="white" x="23.2783" y="37.3884" width="10" height="9"/>
<path d="M32.3988 38.6256C31.9144 38.2462 31.2115 38.3309 30.8314 38.8153L27.7522 42.7427L26.1841 41.1746C25.748 40.7385 25.0415 40.7385 24.6054 41.1746C24.1693 41.6107 24.1693 42.3172 24.6054 42.7533L27.0653 45.2132C27.0726 45.2205 27.0824 45.223 27.09 45.2288C27.1155 45.2535 27.1376 45.2793 27.1667 45.3026C27.2234 45.3473 27.2881 45.3702 27.3499 45.4022C27.3895 45.4222 27.4244 45.4491 27.4651 45.4647C27.5915 45.5116 27.7227 45.5406 27.8536 45.5406H27.8543H27.8557C27.9851 45.5399 28.1134 45.5108 28.2362 45.4661C28.2548 45.4589 28.274 45.4541 28.2929 45.4469C28.4107 45.3971 28.5175 45.324 28.6145 45.2332C28.6243 45.2248 28.6352 45.2219 28.6443 45.2139C28.6541 45.2041 28.6563 45.1925 28.6643 45.1827C28.6865 45.1587 28.7127 45.1394 28.7334 45.1136L32.5895 40.1949C32.9678 39.7086 32.8831 39.0062 32.3987 38.6257L32.3988 38.6256Z"/>
</mask>
<path d="M32.3988 38.6256C31.9144 38.2462 31.2115 38.3309 30.8314 38.8153L27.7522 42.7427L26.1841 41.1746C25.748 40.7385 25.0415 40.7385 24.6054 41.1746C24.1693 41.6107 24.1693 42.3172 24.6054 42.7533L27.0653 45.2132C27.0726 45.2205 27.0824 45.223 27.09 45.2288C27.1155 45.2535 27.1376 45.2793 27.1667 45.3026C27.2234 45.3473 27.2881 45.3702 27.3499 45.4022C27.3895 45.4222 27.4244 45.4491 27.4651 45.4647C27.5915 45.5116 27.7227 45.5406 27.8536 45.5406H27.8543H27.8557C27.9851 45.5399 28.1134 45.5108 28.2362 45.4661C28.2548 45.4589 28.274 45.4541 28.2929 45.4469C28.4107 45.3971 28.5175 45.324 28.6145 45.2332C28.6243 45.2248 28.6352 45.2219 28.6443 45.2139C28.6541 45.2041 28.6563 45.1925 28.6643 45.1827C28.6865 45.1587 28.7127 45.1394 28.7334 45.1136L32.5895 40.1949C32.9678 39.7086 32.8831 39.0062 32.3987 38.6257L32.3988 38.6256Z" fill="#343090"/>
<path d="M32.3988 38.6256C31.9144 38.2462 31.2115 38.3309 30.8314 38.8153L27.7522 42.7427L26.1841 41.1746C25.748 40.7385 25.0415 40.7385 24.6054 41.1746C24.1693 41.6107 24.1693 42.3172 24.6054 42.7533L27.0653 45.2132C27.0726 45.2205 27.0824 45.223 27.09 45.2288C27.1155 45.2535 27.1376 45.2793 27.1667 45.3026C27.2234 45.3473 27.2881 45.3702 27.3499 45.4022C27.3895 45.4222 27.4244 45.4491 27.4651 45.4647C27.5915 45.5116 27.7227 45.5406 27.8536 45.5406H27.8543H27.8557C27.9851 45.5399 28.1134 45.5108 28.2362 45.4661C28.2548 45.4589 28.274 45.4541 28.2929 45.4469C28.4107 45.3971 28.5175 45.324 28.6145 45.2332C28.6243 45.2248 28.6352 45.2219 28.6443 45.2139C28.6541 45.2041 28.6563 45.1925 28.6643 45.1827C28.6865 45.1587 28.7127 45.1394 28.7334 45.1136L32.5895 40.1949C32.9678 39.7086 32.8831 39.0062 32.3987 38.6257L32.3988 38.6256Z" stroke="#343090" stroke-width="0.4" mask="url(#path-3-outside-3_1023_1312)"/>
<mask id="path-4-outside-4_1023_1312" maskUnits="userSpaceOnUse" x="23.2783" y="47.0936" width="10" height="9" fill="black">
<rect fill="white" x="23.2783" y="47.0936" width="10" height="9"/>
<path d="M32.3988 48.3309C31.9144 47.9515 31.2115 48.0361 30.8314 48.5206L27.7522 52.448L26.1841 50.8799C25.748 50.4438 25.0415 50.4438 24.6054 50.8799C24.1693 51.316 24.1693 52.0224 24.6054 52.4586L27.0653 54.9184C27.0726 54.9257 27.0824 54.9283 27.09 54.9341C27.1155 54.9588 27.1376 54.9846 27.1667 55.0078C27.2234 55.0525 27.2881 55.0754 27.3499 55.1074C27.3895 55.1274 27.4244 55.1543 27.4651 55.1699C27.5915 55.2168 27.7227 55.2459 27.8536 55.2459H27.8543H27.8557C27.9851 55.2452 28.1134 55.2161 28.2362 55.1714C28.2548 55.1641 28.274 55.1594 28.2929 55.1521C28.4107 55.1023 28.5175 55.0293 28.6145 54.9384C28.6243 54.9301 28.6352 54.9272 28.6443 54.9192C28.6541 54.9094 28.6563 54.8977 28.6643 54.8879C28.6865 54.8639 28.7127 54.8447 28.7334 54.8189L32.5895 49.9001C32.9678 49.4131 32.8831 48.7103 32.3987 48.3309L32.3988 48.3309Z"/>
</mask>
<path d="M32.3988 48.3309C31.9144 47.9515 31.2115 48.0361 30.8314 48.5206L27.7522 52.448L26.1841 50.8799C25.748 50.4438 25.0415 50.4438 24.6054 50.8799C24.1693 51.316 24.1693 52.0224 24.6054 52.4586L27.0653 54.9184C27.0726 54.9257 27.0824 54.9283 27.09 54.9341C27.1155 54.9588 27.1376 54.9846 27.1667 55.0078C27.2234 55.0525 27.2881 55.0754 27.3499 55.1074C27.3895 55.1274 27.4244 55.1543 27.4651 55.1699C27.5915 55.2168 27.7227 55.2459 27.8536 55.2459H27.8543H27.8557C27.9851 55.2452 28.1134 55.2161 28.2362 55.1714C28.2548 55.1641 28.274 55.1594 28.2929 55.1521C28.4107 55.1023 28.5175 55.0293 28.6145 54.9384C28.6243 54.9301 28.6352 54.9272 28.6443 54.9192C28.6541 54.9094 28.6563 54.8977 28.6643 54.8879C28.6865 54.8639 28.7127 54.8447 28.7334 54.8189L32.5895 49.9001C32.9678 49.4131 32.8831 48.7103 32.3987 48.3309L32.3988 48.3309Z" fill="#343090"/>
<path d="M32.3988 48.3309C31.9144 47.9515 31.2115 48.0361 30.8314 48.5206L27.7522 52.448L26.1841 50.8799C25.748 50.4438 25.0415 50.4438 24.6054 50.8799C24.1693 51.316 24.1693 52.0224 24.6054 52.4586L27.0653 54.9184C27.0726 54.9257 27.0824 54.9283 27.09 54.9341C27.1155 54.9588 27.1376 54.9846 27.1667 55.0078C27.2234 55.0525 27.2881 55.0754 27.3499 55.1074C27.3895 55.1274 27.4244 55.1543 27.4651 55.1699C27.5915 55.2168 27.7227 55.2459 27.8536 55.2459H27.8543H27.8557C27.9851 55.2452 28.1134 55.2161 28.2362 55.1714C28.2548 55.1641 28.274 55.1594 28.2929 55.1521C28.4107 55.1023 28.5175 55.0293 28.6145 54.9384C28.6243 54.9301 28.6352 54.9272 28.6443 54.9192C28.6541 54.9094 28.6563 54.8977 28.6643 54.8879C28.6865 54.8639 28.7127 54.8447 28.7334 54.8189L32.5895 49.9001C32.9678 49.4131 32.8831 48.7103 32.3987 48.3309L32.3988 48.3309Z" stroke="#343090" stroke-width="0.4" mask="url(#path-4-outside-4_1023_1312)"/>
<mask id="path-5-outside-5_1023_1312" maskUnits="userSpaceOnUse" x="34.1123" y="30.1439" width="16" height="4" fill="black">
<rect fill="white" x="34.1123" y="30.1439" width="16" height="4"/>
<path d="M48.1947 31.1439H36.2287C35.6116 31.1439 35.1123 31.6439 35.1123 32.2603C35.1123 32.8773 35.6116 33.3767 36.2287 33.3767H48.1947C48.811 33.3767 49.3111 32.8773 49.3111 32.2603C49.3111 31.6439 48.8117 31.1439 48.1947 31.1439Z"/>
</mask>
<path d="M48.1947 31.1439H36.2287C35.6116 31.1439 35.1123 31.6439 35.1123 32.2603C35.1123 32.8773 35.6116 33.3767 36.2287 33.3767H48.1947C48.811 33.3767 49.3111 32.8773 49.3111 32.2603C49.3111 31.6439 48.8117 31.1439 48.1947 31.1439Z" fill="#343090"/>
<path d="M48.1947 31.1439H36.2287C35.6116 31.1439 35.1123 31.6439 35.1123 32.2603C35.1123 32.8773 35.6116 33.3767 36.2287 33.3767H48.1947C48.811 33.3767 49.3111 32.8773 49.3111 32.2603C49.3111 31.6439 48.8117 31.1439 48.1947 31.1439Z" stroke="#343090" stroke-width="0.4" mask="url(#path-5-outside-5_1023_1312)"/>
<mask id="path-6-outside-6_1023_1312" maskUnits="userSpaceOnUse" x="34.1123" y="39.8472" width="16" height="4" fill="black">
<rect fill="white" x="34.1123" y="39.8472" width="16" height="4"/>
<path d="M48.1947 40.8472H36.2287C35.6116 40.8472 35.1123 41.3473 35.1123 41.9636C35.1123 42.58 35.6116 43.08 36.2287 43.08H48.1947C48.811 43.08 49.3111 42.58 49.3111 41.9636C49.3111 41.3476 48.8117 40.8472 48.1947 40.8472Z"/>
</mask>
<path d="M48.1947 40.8472H36.2287C35.6116 40.8472 35.1123 41.3473 35.1123 41.9636C35.1123 42.58 35.6116 43.08 36.2287 43.08H48.1947C48.811 43.08 49.3111 42.58 49.3111 41.9636C49.3111 41.3476 48.8117 40.8472 48.1947 40.8472Z" fill="#343090"/>
<path d="M48.1947 40.8472H36.2287C35.6116 40.8472 35.1123 41.3473 35.1123 41.9636C35.1123 42.58 35.6116 43.08 36.2287 43.08H48.1947C48.811 43.08 49.3111 42.58 49.3111 41.9636C49.3111 41.3476 48.8117 40.8472 48.1947 40.8472Z" stroke="#343090" stroke-width="0.4" mask="url(#path-6-outside-6_1023_1312)"/>
<mask id="path-7-outside-7_1023_1312" maskUnits="userSpaceOnUse" x="34.1123" y="49.5524" width="16" height="4" fill="black">
<rect fill="white" x="34.1123" y="49.5524" width="16" height="4"/>
<path d="M48.1947 50.5524H36.2287C35.6116 50.5524 35.1123 51.0525 35.1123 51.6688C35.1123 52.2852 35.6116 52.7852 36.2287 52.7852H48.1947C48.811 52.7852 49.3111 52.2852 49.3111 51.6688C49.3111 51.0528 48.8117 50.5524 48.1947 50.5524Z"/>
</mask>
<path d="M48.1947 50.5524H36.2287C35.6116 50.5524 35.1123 51.0525 35.1123 51.6688C35.1123 52.2852 35.6116 52.7852 36.2287 52.7852H48.1947C48.811 52.7852 49.3111 52.2852 49.3111 51.6688C49.3111 51.0528 48.8117 50.5524 48.1947 50.5524Z" fill="#343090"/>
<path d="M48.1947 50.5524H36.2287C35.6116 50.5524 35.1123 51.0525 35.1123 51.6688C35.1123 52.2852 35.6116 52.7852 36.2287 52.7852H48.1947C48.811 52.7852 49.3111 52.2852 49.3111 51.6688C49.3111 51.0528 48.8117 50.5524 48.1947 50.5524Z" stroke="#343090" stroke-width="0.4" mask="url(#path-7-outside-7_1023_1312)"/>
</svg>
