<svg width="74" height="74" viewBox="0 0 74 74" fill="none" xmlns="http://www.w3.org/2000/svg">
<path d="M60.9568 31.2375C60.8533 30.9296 60.5788 30.7049 60.2481 30.6581L44.3817 28.4213L37.2861 14.4748C37.1388 14.1838 36.8335 14 36.5002 14C36.1669 14 35.8608 14.1838 35.7144 14.4748L28.6179 28.4222L12.7515 30.659C12.4208 30.7058 12.1472 30.9296 12.0428 31.2384C11.9402 31.5455 12.0252 31.8842 12.2647 32.1096L23.7466 42.9661L21.0355 58.2961C20.9794 58.6151 21.1145 58.9376 21.3837 59.1282C21.6547 59.3205 22.0135 59.3451 22.3073 59.1928L36.5002 51.9558L50.6914 59.1928C50.8195 59.2584 50.9607 59.2907 51.1002 59.2907C51.2817 59.2907 51.4624 59.2362 51.6159 59.1282C51.886 58.9376 52.0211 58.6151 51.9641 58.2961L49.2539 42.9669L60.7358 32.1096C60.9744 31.8825 61.0603 31.5447 60.9568 31.2375Z" stroke="#343090" stroke-width="2.5"/>
</svg>
