<svg width="40" height="40" viewBox="0 0 40 40" fill="none" xmlns="http://www.w3.org/2000/svg">
<g clip-path="url(#clip0_474_899)">
<path d="M20 39.9996C31.0457 39.9996 40 31.0453 40 19.9996C40 8.95394 31.0457 -0.000366211 20 -0.000366211C8.95431 -0.000366211 0 8.95394 0 19.9996C0 31.0453 8.95431 39.9996 20 39.9996Z" fill="#FBFBFE"/>
<path d="M31.9499 21.6089V29.8545H27.1694V22.1615C27.1694 20.2299 26.4792 18.9108 24.7483 18.9108C23.4274 18.9108 22.6427 19.7989 22.2961 20.6588C22.1703 20.9661 22.1378 21.3929 22.1378 21.8239V29.8541H17.3569C17.3569 29.8541 17.4211 16.8248 17.3569 15.4761H22.1382V17.5136C22.1286 17.5296 22.115 17.5453 22.1064 17.5606H22.1382V17.5136C22.7735 16.536 23.9065 15.1385 26.4467 15.1385C29.5919 15.1385 31.9499 17.1934 31.9499 21.6089ZM12.3557 8.54535C10.7203 8.54535 9.65039 9.61883 9.65039 11.0292C9.65039 12.4097 10.6893 13.5142 12.2929 13.5142H12.3239C13.9914 13.5142 15.0281 12.4097 15.0281 11.0292C14.9964 9.61883 13.9914 8.54535 12.3557 8.54535ZM9.93454 29.8545H14.7137V15.4761H9.93454V29.8545Z" fill="#453FB0"/>
</g>
<defs>
<clipPath id="clip0_474_899">
<rect width="40" height="40" fill="white"/>
</clipPath>
</defs>
</svg>
