<svg width="60" height="60" viewBox="0 0 60 60" fill="none" xmlns="http://www.w3.org/2000/svg">
<circle cx="30" cy="30" r="30" fill="#FBFBFE"/>
<path d="M41.3401 38.0816C39.8169 39.5863 38.0585 40.7798 36.0944 41.604C34.0703 42.4854 31.9004 42.9114 29.6738 42.9114C27.4455 42.9114 25.2761 42.4566 23.2538 41.6043L23.2515 41.6034L23.2515 41.6034C22.6112 41.3213 21.9679 41.0096 21.3522 40.6406C20.9854 40.4582 20.8747 39.9965 21.0917 39.6713C21.2827 39.3133 21.7546 39.2144 22.0821 39.4227C22.6314 39.7308 23.205 40.0363 23.8054 40.2857L23.8064 40.2862C25.6463 41.0664 27.6306 41.4569 29.6447 41.4569C31.6584 41.4569 33.6429 41.0665 35.5123 40.2861C37.1899 39.5693 38.7271 38.5528 40.0684 37.263V30.9425L29.9684 35.5483L29.9606 35.5519L29.9523 35.5546L29.9439 35.5573C29.8625 35.5837 29.7559 35.6182 29.6447 35.6182C29.5336 35.6182 29.4269 35.5837 29.3456 35.5573C29.3427 35.5564 29.3399 35.5555 29.3371 35.5546L29.329 35.5519L29.3212 35.5484L21.3909 31.944L21.3876 31.9425L21.3876 31.9425C21.036 31.7722 20.8381 31.3489 21.0291 30.9784L21.0292 30.9784C21.2069 30.634 21.6385 30.4506 22.0106 30.6299L29.6451 34.1208L29.6584 34.1147L29.8762 34.0163L30.6854 33.6505C31.3734 33.3395 32.3349 32.9047 33.4291 32.4098C35.6147 31.4212 38.3293 30.1927 40.4495 29.231C40.4525 29.2293 40.456 29.2273 40.4601 29.225C40.4718 29.2186 40.4879 29.2103 40.508 29.2012C40.5479 29.1832 40.6045 29.1617 40.6732 29.1469C40.8113 29.1173 41.0026 29.1147 41.1984 29.2278C41.3906 29.3387 41.4831 29.4915 41.5254 29.6189C41.5463 29.6815 41.5548 29.7371 41.558 29.7779C41.5597 29.7984 41.5601 29.8154 41.5599 29.828C41.5599 29.8344 41.5597 29.8396 41.5595 29.8437L41.5595 29.8444V37.5802C41.5595 37.7633 41.4836 37.9422 41.3401 38.0816ZM41.3401 38.0816C41.3399 38.0817 41.3397 38.0819 41.3396 38.0821L41.2352 37.9744L41.3406 38.0811C41.3404 38.0812 41.3403 38.0814 41.3401 38.0816Z" fill="#453FB0" stroke="#453FB0" stroke-width="0.3"/>
<path d="M50.8811 24.7063L29.861 15.0634C29.7159 14.9789 29.513 14.9789 29.3681 15.0634L8.31889 24.7063C8.11598 24.7909 8 24.9882 8 25.2138C8 25.4393 8.11598 25.6367 8.31889 25.7213L15.4512 28.9919C15.7412 29.133 16.0891 28.9919 16.234 28.7101C16.3791 28.4281 16.234 28.0897 15.9442 27.9488L9.91356 25.1856L29.6001 16.2195L49.2575 25.2138L42.9949 28.0897C42.7049 28.2308 42.589 28.569 42.7049 28.851C42.792 29.0483 43.0239 29.1612 43.2269 29.1612C43.3138 29.1612 43.4008 29.133 43.4878 29.1048L50.8811 25.7213C51.084 25.6367 51.2 25.4393 51.2 25.2138C51.2 24.9882 51.084 24.7909 50.8811 24.7063Z" fill="#453FB0" stroke-width="0.3"/>
<path d="M50.8811 24.7063L29.861 15.0634C29.7159 14.9789 29.513 14.9789 29.3681 15.0634L8.31889 24.7063C8.11598 24.7909 8 24.9882 8 25.2138C8 25.4393 8.11598 25.6367 8.31889 25.7213L15.4512 28.9919C15.7412 29.133 16.0891 28.9919 16.234 28.7101C16.3791 28.4281 16.234 28.0897 15.9442 27.9488L9.91356 25.1856L29.6001 16.2195L49.2575 25.2138L42.9949 28.0897C42.7049 28.2308 42.589 28.569 42.7049 28.851C42.792 29.0483 43.0239 29.1612 43.2269 29.1612C43.3138 29.1612 43.4008 29.133 43.4878 29.1048L50.8811 25.7213C51.084 25.6367 51.2 25.4393 51.2 25.2138C51.2 24.9882 51.084 24.7909 50.8811 24.7063Z" stroke="#453FB0" stroke-width="0.3"/>
<path d="M30.2466 24.2192L30.2465 24.2191C30.0632 23.8629 29.6262 23.7237 29.2651 23.899C29.2649 23.899 29.2648 23.8991 29.2647 23.8992L18.0794 29.2526C18.0771 29.2536 18.0746 29.2546 18.0721 29.2558C18.0642 29.2594 18.0546 29.2641 18.043 29.2705C18.0199 29.2832 17.9868 29.3032 17.9396 29.3354C17.863 29.3876 17.8241 29.4558 17.805 29.5101C17.7955 29.537 17.7907 29.5608 17.7883 29.5788C17.787 29.5878 17.7864 29.5956 17.786 29.6018L17.7856 29.6099L17.7856 29.613L17.7855 29.6144L17.7855 29.615L17.7855 29.615V45.002C17.7855 45.3987 18.1176 45.7156 18.5154 45.7156C18.9132 45.7156 19.2452 45.3987 19.2452 45.002V30.2725L29.9167 25.184L29.9177 25.1835C30.2811 25.0069 30.4311 24.578 30.2466 24.2192Z" fill="#453FB0" stroke="#453FB0" stroke-width="0.3"/>
</svg>
