<svg width="40" height="40" viewBox="0 0 40 40" fill="none" xmlns="http://www.w3.org/2000/svg">
<g clip-path="url(#clip0_474_910)">
<path d="M19.9998 39.9996C31.0454 39.9996 39.9996 31.0454 39.9996 19.9998C39.9996 8.95423 31.0454 0 19.9998 0C8.95423 0 0 8.95423 0 19.9998C0 31.0454 8.95423 39.9996 19.9998 39.9996Z" fill="#FBFBFE"/>
<path d="M32.2504 14.3733C31.3933 14.7533 30.4714 15.0104 29.5045 15.1252C30.4917 14.5337 31.2493 13.5979 31.6069 12.4809C30.6831 13.0289 29.6596 13.4264 28.5711 13.6407C27.6991 12.7119 26.4566 12.1315 25.0808 12.1315C22.4412 12.1315 20.3003 14.2724 20.3003 16.9121C20.3003 17.2867 20.3428 17.6515 20.4247 18.0016C16.4517 17.8023 12.929 15.8992 10.571 13.0061C10.1596 13.712 9.92358 14.5337 9.92358 15.4097C9.92358 17.0678 10.7682 18.5317 12.0502 19.3888C11.2669 19.3642 10.5293 19.1492 9.88507 18.7902C9.88472 18.8105 9.88472 18.8308 9.88472 18.8508C9.88472 21.1671 11.5332 23.099 13.7198 23.5379C13.319 23.6477 12.8958 23.7058 12.4605 23.7058C12.1518 23.7058 11.8527 23.6762 11.5611 23.6206C12.1693 25.5194 13.9344 26.9016 16.0268 26.9405C14.3904 28.2229 12.3293 28.9869 10.089 28.9869C9.70396 28.9869 9.32249 28.9644 8.94922 28.9199C11.0637 30.2768 13.5771 31.0679 16.2767 31.0679C25.0698 31.0679 29.8785 23.7835 29.8785 17.4657C29.8785 17.2586 29.8738 17.0522 29.8646 16.8475C30.7994 16.1737 31.6097 15.332 32.2504 14.3733Z" fill="#453FB0"/>
</g>
<defs>
<clipPath id="clip0_474_910">
<rect width="40" height="40" fill="white"/>
</clipPath>
</defs>
</svg>
