<svg width="40" height="40" viewBox="0 0 40 40" fill="none" xmlns="http://www.w3.org/2000/svg">
<path d="M20 40C31.0457 40 40 31.0457 40 20C40 8.9543 31.0457 0 20 0C8.9543 0 0 8.9543 0 20C0 31.0457 8.9543 40 20 40Z" fill="#FBFBFE"/>
<path d="M26.9307 13.6329C25.634 13.0377 24.2655 12.6133 22.8596 12.3704C22.8468 12.3679 22.8336 12.3696 22.8218 12.3751C22.81 12.3807 22.8003 12.3898 22.794 12.4012C22.6073 12.7396 22.4378 13.0872 22.2862 13.4426C20.7708 13.2125 19.2293 13.2125 17.7139 13.4426C17.5616 13.0863 17.3897 12.7386 17.1991 12.4012C17.1925 12.39 17.1828 12.3811 17.171 12.3756C17.1593 12.3701 17.1462 12.3683 17.1334 12.3704C15.7279 12.6129 14.3599 13.0373 13.0639 13.6329C13.0527 13.6375 13.0433 13.6456 13.037 13.6559C10.4444 17.5297 9.73422 21.3082 10.0827 25.0391C10.0837 25.0483 10.0865 25.0572 10.091 25.0652C10.0955 25.0733 10.1015 25.0803 10.1088 25.086C11.6185 26.2043 13.3073 27.058 15.103 27.6106C15.1156 27.6144 15.1292 27.6142 15.1417 27.6101C15.1543 27.606 15.1653 27.5981 15.1733 27.5875C15.5589 27.0626 15.9005 26.5069 16.1948 25.9258C16.1988 25.9179 16.2011 25.9091 16.2015 25.9002C16.2019 25.8913 16.2004 25.8824 16.1971 25.8741C16.1938 25.8658 16.1888 25.8583 16.1824 25.852C16.176 25.8458 16.1684 25.841 16.16 25.8379C15.6212 25.6321 15.0995 25.384 14.5998 25.0958C14.5908 25.0904 14.5832 25.0829 14.5777 25.074C14.5722 25.065 14.569 25.0548 14.5684 25.0443C14.5678 25.0338 14.5697 25.0233 14.5741 25.0137C14.5785 25.0042 14.5852 24.9959 14.5936 24.9895C14.6983 24.9114 14.8034 24.8293 14.9034 24.7465C14.9122 24.7392 14.923 24.7346 14.9344 24.7331C14.9458 24.7315 14.9573 24.7332 14.9678 24.7379C18.2409 26.2325 21.7846 26.2325 25.019 24.7379C25.0295 24.7329 25.0413 24.7309 25.0529 24.7323C25.0646 24.7337 25.0755 24.7384 25.0846 24.7457C25.1846 24.8282 25.2897 24.911 25.3971 24.9895C25.4055 24.9958 25.4123 25.0041 25.4167 25.0136C25.4212 25.0231 25.4232 25.0336 25.4227 25.0441C25.4222 25.0546 25.419 25.0648 25.4136 25.0738C25.4082 25.0828 25.4007 25.0903 25.3916 25.0958C24.8927 25.3867 24.37 25.635 23.8291 25.8379C23.8207 25.8411 23.8131 25.846 23.8067 25.8524C23.8003 25.8588 23.7953 25.8664 23.7921 25.8748C23.7889 25.8832 23.7875 25.8922 23.788 25.9012C23.7886 25.9102 23.791 25.919 23.7952 25.927C24.0943 26.5049 24.4355 27.06 24.8159 27.5879C24.8236 27.5988 24.8345 27.607 24.8472 27.6112C24.8598 27.6155 24.8734 27.6157 24.8862 27.6118C26.6843 27.0608 28.3753 26.207 29.8862 25.0872C29.8936 25.0818 29.8997 25.0749 29.9043 25.0669C29.9088 25.059 29.9115 25.0502 29.9123 25.0411C30.3295 20.727 29.2139 16.9793 26.9553 13.6575C26.9503 13.6466 26.9416 13.6379 26.9307 13.6329ZM16.683 22.7676C15.6975 22.7676 14.8862 21.8629 14.8862 20.752C14.8862 19.6411 15.6823 18.7364 16.683 18.7364C17.692 18.7364 18.4963 19.6489 18.4799 20.752C18.4807 21.8629 17.6842 22.7676 16.683 22.7676ZM23.3288 22.7676C22.3432 22.7676 21.5319 21.8629 21.5319 20.752C21.5319 19.6411 22.328 18.7364 23.3288 18.7364C24.3377 18.7364 25.142 19.6489 25.1256 20.752C25.126 21.8629 24.3377 22.7676 23.3288 22.7676Z" fill="#453FB0"/>
</svg>
