<svg width="40" height="40" viewBox="0 0 40 40" fill="none" xmlns="http://www.w3.org/2000/svg">
<path d="M19.9999 0C31.0449 0 40 8.95499 40 20.0001C40 31.0451 31.045 40 20.0001 40C8.95513 40 0 31.045 0 20.0001C0 8.95513 8.95376 0 19.9999 0Z" fill="#FBFBFE"/>
<path fill-rule="evenodd" clip-rule="evenodd" d="M20 7.5C16.6052 7.5 16.1795 7.51439 14.8463 7.57522C13.5157 7.63591 12.6071 7.84723 11.812 8.15626C10.99 8.47566 10.2929 8.90307 9.59798 9.59798C8.90307 10.2929 8.47566 10.99 8.15621 11.812C7.84718 12.6071 7.63591 13.5158 7.57517 14.8463C7.51434 16.1795 7.5 16.6052 7.5 20C7.5 23.3948 7.51434 23.8205 7.57517 25.1537C7.63591 26.4842 7.84718 27.3929 8.15621 28.188C8.47566 29.0099 8.90307 29.7071 9.59798 30.402C10.2929 31.0969 10.99 31.5243 11.812 31.8438C12.6071 32.1528 13.5157 32.3641 14.8463 32.4248C16.1795 32.4856 16.6052 32.5 20 32.5C23.3948 32.5 23.8204 32.4856 25.1537 32.4248C26.4842 32.3641 27.3928 32.1528 28.188 31.8438C29.01 31.5243 29.7071 31.0969 30.402 30.402C31.0969 29.7071 31.5243 29.01 31.8437 28.188C32.1528 27.3929 32.3641 26.4842 32.4247 25.1537C32.4856 23.8205 32.5 23.3948 32.5 20C32.5 16.6052 32.4856 16.1795 32.4247 14.8463C32.3641 13.5158 32.1528 12.6071 31.8437 11.812C31.5243 10.99 31.0969 10.2929 30.402 9.59798C29.7071 8.90307 29.01 8.47566 28.188 8.15626C27.3928 7.84723 26.4842 7.63591 25.1537 7.57522C23.8204 7.51439 23.3948 7.5 20 7.5ZM20 9.75225C23.3376 9.75225 23.7329 9.76495 25.051 9.82509C26.2698 9.88071 26.9316 10.0843 27.3721 10.2555C27.9556 10.4823 28.372 10.7532 28.8094 11.1905C29.2468 11.628 29.5177 12.0444 29.7445 12.6279C29.9156 13.0683 30.1192 13.7302 30.1749 14.9489C30.2349 16.267 30.2477 16.6624 30.2477 20C30.2477 23.3376 30.2349 23.733 30.1749 25.051C30.1192 26.2698 29.9156 26.9317 29.7445 27.3721C29.5177 27.9556 29.2468 28.372 28.8094 28.8094C28.372 29.2468 27.9556 29.5177 27.3721 29.7445C26.9316 29.9156 26.2698 30.1193 25.051 30.1749C23.7331 30.235 23.3379 30.2478 20 30.2478C16.6621 30.2478 16.2668 30.235 14.9489 30.1749C13.7302 30.1193 13.0683 29.9156 12.6278 29.7445C12.0444 29.5177 11.6279 29.2468 11.1906 28.8094C10.7532 28.372 10.4822 27.9556 10.2555 27.3721C10.0843 26.9317 9.88071 26.2698 9.82509 25.0511C9.76495 23.733 9.75225 23.3376 9.75225 20C9.75225 16.6624 9.76495 16.267 9.82509 14.9489C9.88071 13.7302 10.0843 13.0683 10.2555 12.6279C10.4822 12.0444 10.7532 11.628 11.1905 11.1906C11.6279 10.7532 12.0444 10.4823 12.6278 10.2555C13.0683 10.0843 13.7302 9.88071 14.9489 9.82509C16.267 9.76495 16.6623 9.75225 20 9.75225ZM20 24.1667C17.6988 24.1667 15.8333 22.3011 15.8333 20C15.8333 17.6988 17.6988 15.8333 20 15.8333C22.3011 15.8333 24.1667 17.6988 24.1667 20C24.1667 22.3011 22.3011 24.1667 20 24.1667ZM20 13.5811C16.4549 13.5811 13.581 16.4549 13.581 20C13.581 23.5451 16.4549 26.4189 20 26.4189C23.545 26.4189 26.4189 23.5451 26.4189 20C26.4189 16.4549 23.545 13.5811 20 13.5811ZM28.1725 13.3275C28.1725 14.1559 27.501 14.8275 26.6725 14.8275C25.8441 14.8275 25.1725 14.1559 25.1725 13.3275C25.1725 12.499 25.8441 11.8274 26.6725 11.8274C27.501 11.8274 28.1725 12.499 28.1725 13.3275Z" fill="#453FB0"/>
</svg>
