<svg width="41" height="39" viewBox="0 0 41 39" fill="none" xmlns="http://www.w3.org/2000/svg">
<path d="M39.9656 15.0818C39.8833 14.8301 39.6648 14.6467 39.4016 14.6084L26.7732 12.7811L21.1257 1.38784C21.0084 1.15013 20.7655 1 20.5002 1C20.2349 1 19.9913 1.15013 19.8747 1.38784L14.2265 12.7818L1.59811 14.6091C1.33493 14.6473 1.11713 14.8301 1.03405 15.0824C0.952378 15.3334 1.02009 15.61 1.21067 15.7942L10.3493 24.663L8.19153 37.1865C8.14685 37.4471 8.25436 37.7106 8.46867 37.8663C8.68438 38.0233 8.9699 38.0435 9.20376 37.9191L20.5002 32.007L31.7952 37.9191C31.8971 37.9726 32.0095 37.999 32.1205 37.999C32.265 37.999 32.4088 37.9545 32.531 37.8663C32.746 37.7106 32.8535 37.4471 32.8081 37.1865L30.6511 24.6637L39.7897 15.7942C39.9796 15.6086 40.048 15.3327 39.9656 15.0818Z" stroke="#C4C4C4" stroke-width="2"/>
<path d="M18.843 23.8852C18.843 23.3092 18.971 22.8345 19.227 22.4612C19.4937 22.0772 19.8777 21.6612 20.379 21.2132C20.763 20.8718 21.0457 20.5785 21.227 20.3332C21.419 20.0772 21.515 19.7892 21.515 19.4692C21.515 19.0212 21.3337 18.6585 20.971 18.3812C20.6083 18.1038 20.123 17.9652 19.515 17.9652C18.363 17.9652 17.4937 18.3758 16.907 19.1972L15.355 18.1892C15.8137 17.5598 16.4057 17.0798 17.131 16.7492C17.8563 16.4078 18.7097 16.2372 19.691 16.2372C20.8857 16.2372 21.835 16.4985 22.539 17.0212C23.2537 17.5332 23.611 18.2425 23.611 19.1492C23.611 19.5865 23.5363 19.9705 23.387 20.3012C23.2483 20.6318 23.0777 20.9145 22.875 21.1492C22.6723 21.3732 22.4057 21.6345 22.075 21.9332C21.6697 22.2958 21.3657 22.6158 21.163 22.8932C20.971 23.1705 20.875 23.5012 20.875 23.8852H18.843ZM19.867 27.7092C19.4937 27.7092 19.1843 27.5918 18.939 27.3572C18.7043 27.1118 18.587 26.8132 18.587 26.4612C18.587 26.1092 18.7043 25.8158 18.939 25.5812C19.1843 25.3465 19.4937 25.2292 19.867 25.2292C20.2297 25.2292 20.5283 25.3465 20.763 25.5812C21.0083 25.8158 21.131 26.1092 21.131 26.4612C21.131 26.8132 21.0083 27.1118 20.763 27.3572C20.5283 27.5918 20.2297 27.7092 19.867 27.7092Z" fill="#C4C4C4"/>
</svg>
