<svg width="38" height="38" viewBox="0 0 38 38" fill="none" xmlns="http://www.w3.org/2000/svg">
<circle cx="19" cy="19" r="19" fill="#F3F3F4"/>
<path d="M31.9788 16.3729C31.9282 16.2233 31.7937 16.1142 31.6317 16.0915L23.8604 15.005L20.385 8.23061C20.3129 8.08927 20.1634 8 20.0001 8C19.8369 8 19.6869 8.08927 19.6152 8.23061L16.1394 15.0054L8.36807 16.0919C8.20611 16.1146 8.07208 16.2233 8.02096 16.3733C7.97069 16.5225 8.01236 16.687 8.12964 16.7965L13.7534 22.0699L12.4256 29.5163C12.3981 29.6713 12.4642 29.8279 12.5961 29.9205C12.7288 30.0139 12.9046 30.0259 13.0485 29.9519L20.0001 26.4366L26.9509 29.9519C27.0136 29.9837 27.0828 29.9994 27.1511 29.9994C27.24 29.9994 27.3285 29.973 27.4037 29.9205C27.536 29.8279 27.6022 29.6713 27.5742 29.5163L26.2468 22.0703L31.8706 16.7965C31.9874 16.6862 32.0295 16.5221 31.9788 16.3729Z" fill="#706F7C"/>
</svg>
